<svg width="40" height="40" viewBox="0 0 40 40" fill="none" xmlns="http://www.w3.org/2000/svg">
<g id="icon/drive_eta">
<g id="Vector">
<path d="M31.5333 8.34996C31.2 7.36663 30.2667 6.66663 29.1667 6.66663H10.8333C9.73333 6.66663 8.81667 7.36663 8.46667 8.34996L5 18.3333V31.6666C5 32.5833 5.75 33.3333 6.66667 33.3333H8.33333C9.25 33.3333 10 32.5833 10 31.6666V30H30V31.6666C30 32.5833 30.75 33.3333 31.6667 33.3333H33.3333C34.25 33.3333 35 32.5833 35 31.6666V18.3333L31.5333 8.34996ZM11.4167 9.99996H28.5667L30.3 15H9.68333L11.4167 9.99996ZM31.6667 26.6666H8.33333V18.9L8.53333 18.3333H31.4833L31.6667 18.9V26.6666Z" fill="#526563"/>
<path d="M12.5 25C13.8807 25 15 23.8807 15 22.5C15 21.1192 13.8807 20 12.5 20C11.1193 20 10 21.1192 10 22.5C10 23.8807 11.1193 25 12.5 25Z" fill="#526563"/>
<path d="M27.5 25C28.8807 25 30 23.8807 30 22.5C30 21.1192 28.8807 20 27.5 20C26.1193 20 25 21.1192 25 22.5C25 23.8807 26.1193 25 27.5 25Z" fill="#526563"/>
</g>
</g>
</svg>
