<svg width="40" height="40" viewBox="0 0 40 40" fill="none" xmlns="http://www.w3.org/2000/svg">
<g id="icon/pets">
<g id="Vector">
<path d="M7.49992 19.163C9.80111 19.163 11.6666 17.2975 11.6666 14.9963C11.6666 12.6951 9.80111 10.8296 7.49992 10.8296C5.19873 10.8296 3.33325 12.6951 3.33325 14.9963C3.33325 17.2975 5.19873 19.163 7.49992 19.163Z" fill="#526563"/>
<path d="M14.9999 12.4963C17.3011 12.4963 19.1666 10.6308 19.1666 8.32963C19.1666 6.02844 17.3011 4.16296 14.9999 4.16296C12.6987 4.16296 10.8333 6.02844 10.8333 8.32963C10.8333 10.6308 12.6987 12.4963 14.9999 12.4963Z" fill="#526563"/>
<path d="M24.9999 12.4963C27.3011 12.4963 29.1666 10.6308 29.1666 8.32963C29.1666 6.02844 27.3011 4.16296 24.9999 4.16296C22.6987 4.16296 20.8333 6.02844 20.8333 8.32963C20.8333 10.6308 22.6987 12.4963 24.9999 12.4963Z" fill="#526563"/>
<path d="M32.4999 19.163C34.8011 19.163 36.6666 17.2975 36.6666 14.9963C36.6666 12.6951 34.8011 10.8296 32.4999 10.8296C30.1987 10.8296 28.3333 12.6951 28.3333 14.9963C28.3333 17.2975 30.1987 19.163 32.4999 19.163Z" fill="#526563"/>
<path d="M28.8999 23.9296C27.4499 22.2296 26.2333 20.7796 24.7666 19.0796C23.9999 18.1796 23.0166 17.2796 21.8499 16.8796C21.6666 16.813 21.4833 16.763 21.2999 16.7296C20.8833 16.663 20.4333 16.663 19.9999 16.663C19.5666 16.663 19.1166 16.663 18.6833 16.7463C18.4999 16.7796 18.3166 16.8296 18.1333 16.8963C16.9666 17.2963 15.9999 18.1963 15.2166 19.0963C13.7666 20.7963 12.5499 22.2463 11.0833 23.9463C8.89992 26.1296 6.21659 28.5463 6.71659 31.9296C7.19992 33.6296 8.41659 35.313 10.5999 35.7963C11.8166 36.0463 15.6999 35.063 19.8333 35.063H20.1333C24.2666 35.063 28.1499 36.0296 29.3666 35.7963C31.5499 35.313 32.7666 33.613 33.2499 31.9296C33.7666 28.5296 31.0833 26.113 28.8999 23.9296Z" fill="#526563"/>
</g>
</g>
</svg>
