<svg width="41" height="40" viewBox="0 0 41 40" fill="none" xmlns="http://www.w3.org/2000/svg">
<g id="icon/pool">
<g id="Vector">
<path d="M17.1666 13.3335L11.7499 18.7501C12.2666 18.9501 12.6833 19.2001 13.0333 19.4001C13.6499 19.7835 14.0166 20.0001 14.9499 20.0001C15.8833 20.0001 16.2499 19.7835 16.8666 19.4001C17.6333 18.9501 18.6666 18.3335 20.5166 18.3335C22.3666 18.3335 23.3999 18.9501 24.1499 19.4001C24.7666 19.7668 25.1499 20.0001 26.0666 20.0001C26.9833 20.0001 27.3666 19.7835 27.9833 19.4001C28.1833 19.2835 28.4166 19.1501 28.6666 19.0168L17.9666 8.33348C15.3833 5.75014 12.9999 4.98348 8.83325 5.00014V9.16681C11.8666 9.15014 13.6499 9.81681 15.4999 11.6668L17.1666 13.3335ZM9.41659 25.8335C10.3333 25.8335 10.7166 26.0668 11.3333 26.4335C12.0833 26.8835 13.1166 27.5001 14.9666 27.5001C16.8166 27.5001 17.8499 26.8835 18.5999 26.4335C19.2166 26.0501 19.5833 25.8335 20.5166 25.8335C21.4333 25.8335 21.8166 26.0668 22.4333 26.4335C23.1833 26.8835 24.2166 27.5001 26.0666 27.5001C27.9166 27.5001 28.9499 26.8835 29.6999 26.4335C30.3166 26.0501 30.6833 25.8335 31.6166 25.8335C32.5333 25.8335 32.9166 26.0668 33.5333 26.4335C34.2833 26.8835 35.2999 27.4835 37.1333 27.5001V24.1668C36.2166 24.1668 35.8333 23.9335 35.2166 23.5668C34.4666 23.1168 33.4333 22.5001 31.5833 22.5001C29.7333 22.5001 28.6999 23.1168 27.9499 23.5668C27.3333 23.9501 26.9499 24.1668 26.0333 24.1668C25.1166 24.1668 24.7333 23.9335 24.1166 23.5668C23.3666 23.1168 22.3333 22.5001 20.4833 22.5001C18.6333 22.5001 17.5999 23.1168 16.8499 23.5668C16.2333 23.9501 15.8666 24.1668 14.9333 24.1668C14.0166 24.1668 13.6333 23.9335 13.0166 23.5668C12.2666 23.1168 11.2333 22.5001 9.38325 22.5001C7.53325 22.5001 6.49992 23.1168 5.74992 23.5668C5.13325 23.9501 4.76659 24.1668 3.83325 24.1668V27.5001C5.68325 27.5001 6.71659 26.8835 7.49992 26.4335C8.11659 26.0501 8.49992 25.8335 9.41659 25.8335ZM31.6166 30.0001C29.7666 30.0001 28.7333 30.6168 27.9833 31.0668C27.3666 31.4501 26.9833 31.6668 26.0666 31.6668C25.1499 31.6668 24.7666 31.4335 24.1499 31.0668C23.3999 30.6168 22.3666 30.0001 20.5166 30.0001C18.6666 30.0001 17.6333 30.6168 16.8666 31.0668C16.2499 31.4501 15.8833 31.6668 14.9499 31.6668C14.0166 31.6668 13.6499 31.4501 13.0333 31.0668C12.2833 30.6168 11.2499 30.0001 9.39992 30.0001C7.54992 30.0001 6.51659 30.6168 5.74992 31.0668C5.13325 31.4501 4.76659 31.6668 3.83325 31.6668V35.0001C5.68325 35.0001 6.71659 34.3835 7.48325 33.9335C8.09992 33.5501 8.48325 33.3335 9.39992 33.3335C10.3166 33.3335 10.6999 33.5501 11.3166 33.9335C12.0666 34.3835 13.0999 35.0001 14.9499 35.0001C16.7999 35.0001 17.8333 34.3835 18.5999 33.9335C19.2166 33.5501 19.5833 33.3335 20.5166 33.3335C21.4333 33.3335 21.8166 33.5668 22.4333 33.9335C23.1833 34.3835 24.2166 35.0001 26.0666 35.0001C27.9166 35.0001 28.9333 34.3835 29.6999 33.9335C30.3166 33.5501 30.6833 33.3335 31.6166 33.3335C32.5333 33.3335 32.9166 33.5668 33.5333 33.9335C34.2833 34.3835 35.3166 35.0001 37.1666 35.0001V31.6668C36.2333 31.6668 35.8666 31.4501 35.2499 31.0668C34.4999 30.6168 33.4666 30.0001 31.6166 30.0001Z" fill="#526563"/>
<path d="M27.9999 13.3335C30.3011 13.3335 32.1666 11.468 32.1666 9.16681C32.1666 6.86562 30.3011 5.00014 27.9999 5.00014C25.6987 5.00014 23.8333 6.86562 23.8333 9.16681C23.8333 11.468 25.6987 13.3335 27.9999 13.3335Z" fill="#526563"/>
</g>
</g>
</svg>
