<svg width="209" height="34" viewBox="0 0 209 34" fill="none" xmlns="http://www.w3.org/2000/svg">
<g id="Stars" clip-path="url(#clip0_2074_738)">
<path id="Vector" d="M16.9604 1.5698C17.5767 0.143399 19.676 0.143401 20.2924 1.5698L23.9302 9.98867C24.1902 10.59 24.7777 11.0009 25.4521 11.0529L34.8946 11.7816C36.4945 11.905 37.1432 13.8268 35.9243 14.8318L28.7301 20.7635C28.2163 21.1873 27.9918 21.8521 28.1488 22.4855L30.3467 31.3548C30.7191 32.8574 29.0208 34.0452 27.6511 33.24L19.5669 28.4871C18.9895 28.1476 18.2633 28.1476 17.6859 28.4871L9.60166 33.24C8.23194 34.0452 6.53359 32.8574 6.90598 31.3548L9.10395 22.4855C9.26095 21.8521 9.03653 21.1873 8.52268 20.7635L1.32839 14.8318C0.109472 13.8268 0.758193 11.905 2.35804 11.7816L11.8007 11.0529C12.4751 11.0009 13.0627 10.59 13.3225 9.98867L16.9604 1.5698Z" fill="#8BA8A5"/>
<path id="Vector_2" d="M59.9948 1.5698C60.6112 0.143399 62.7105 0.143401 63.3268 1.5698L66.9646 9.98867C67.2246 10.59 67.8122 11.0009 68.4866 11.0529L77.9291 11.7816C79.5289 11.905 80.1776 13.8268 78.9587 14.8318L71.7646 20.7635C71.2507 21.1873 71.0262 21.8521 71.1832 22.4855L73.3812 31.3548C73.7535 32.8574 72.0553 34.0452 70.6855 33.24L62.6014 28.4871C62.0239 28.1476 61.2977 28.1476 60.7203 28.4871L52.6361 33.24C51.2664 34.0452 49.568 32.8574 49.9404 31.3548L52.1384 22.4855C52.2954 21.8521 52.071 21.1873 51.5571 20.7635L44.3628 14.8318C43.1439 13.8268 43.7926 11.905 45.3925 11.7816L54.8351 11.0529C55.5096 11.0009 56.0971 10.59 56.3569 9.98867L59.9948 1.5698Z" fill="#8BA8A5"/>
<path id="Vector_3" d="M103.029 1.5698C103.646 0.143399 105.745 0.143401 106.361 1.5698L109.999 9.98867C110.259 10.59 110.847 11.0009 111.521 11.0529L120.963 11.7816C122.563 11.905 123.212 13.8268 121.993 14.8318L114.799 20.7635C114.285 21.1873 114.061 21.8521 114.218 22.4855L116.416 31.3548C116.788 32.8574 115.09 34.0452 113.72 33.24L105.636 28.4871C105.058 28.1476 104.332 28.1476 103.755 28.4871L95.6705 33.24C94.3008 34.0452 92.6024 32.8574 92.9748 31.3548L95.1728 22.4855C95.3298 21.8521 95.1054 21.1873 94.5915 20.7635L87.3972 14.8318C86.1783 13.8268 86.827 11.905 88.4269 11.7816L97.8695 11.0529C98.544 11.0009 99.1315 10.59 99.3913 9.98867L103.029 1.5698Z" fill="#8BA8A5"/>
<path id="Vector_4" d="M146.064 1.5698C146.68 0.143399 148.78 0.143401 149.396 1.5698L153.034 9.98867C153.294 10.59 153.881 11.0009 154.556 11.0529L163.998 11.7816C165.598 11.905 166.247 13.8268 165.028 14.8318L157.834 20.7635C157.32 21.1873 157.095 21.8521 157.252 22.4855L159.45 31.3548C159.823 32.8574 158.124 34.0452 156.755 33.24L148.67 28.4871C148.093 28.1476 147.367 28.1476 146.789 28.4871L138.705 33.24C137.335 34.0452 135.637 32.8574 136.009 31.3548L138.207 22.4855C138.364 21.8521 138.14 21.1873 137.626 20.7635L130.432 14.8318C129.213 13.8268 129.862 11.905 131.462 11.7816L140.904 11.0529C141.579 11.0009 142.166 10.59 142.426 9.98867L146.064 1.5698Z" fill="#8BA8A5"/>
<path id="Vector_5" d="M189.064 1.5698C189.68 0.143399 191.78 0.143401 192.396 1.5698L196.034 9.98867C196.294 10.59 196.881 11.0009 197.556 11.0529L206.998 11.7816C208.598 11.905 209.247 13.8268 208.028 14.8318L200.834 20.7635C200.32 21.1873 200.095 21.8521 200.252 22.4855L202.45 31.3548C202.823 32.8574 201.124 34.0452 199.755 33.24L191.67 28.4871C191.093 28.1476 190.367 28.1476 189.789 28.4871L181.705 33.24C180.335 34.0452 178.637 32.8574 179.009 31.3548L181.207 22.4855C181.364 21.8521 181.14 21.1873 180.626 20.7635L173.432 14.8318C172.213 13.8268 172.862 11.905 174.462 11.7816L183.904 11.0529C184.579 11.0009 185.166 10.59 185.426 9.98867L189.064 1.5698Z" fill="#8BA8A5"/>
</g>
<defs>
<clipPath id="clip0_2074_738">
<rect width="208" height="33" fill="white" transform="translate(0.695312 0.5)"/>
</clipPath>
</defs>
</svg>
