<svg width="41" height="40" viewBox="0 0 41 40" fill="none" xmlns="http://www.w3.org/2000/svg">
<g id="Washing Machine">
<g id="Group">
<path id="Vector" d="M9.25 6.25V31.25H31.75V6.25H9.25ZM9.25 3.75H31.75C33.1307 3.75 34.25 4.86929 34.25 6.25V31.25C34.25 32.6307 33.1307 33.75 31.75 33.75H9.25C7.86929 33.75 6.75 32.6307 6.75 31.25V6.25C6.75 4.86929 7.86929 3.75 9.25 3.75Z" fill="#526563"/>
<path id="Vector_2" d="M26.7217 9.95227C26.0313 9.95227 25.4717 9.39263 25.4717 8.70227C25.4717 8.01191 26.0313 7.45227 26.7217 7.45227H29.287C29.9773 7.45227 30.537 8.01191 30.537 8.70227C30.537 9.39263 29.9773 9.95227 29.287 9.95227H26.7217Z" fill="#526563"/>
<path id="Vector_3" d="M23.0122 10C22.3219 10 21.7622 9.44036 21.7622 8.75C21.7622 8.05964 22.3219 7.5 23.0122 7.5C23.7026 7.5 24.2622 8.05964 24.2622 8.75C24.2622 9.44036 23.7026 10 23.0122 10ZM19.2768 10C18.5864 10 18.0268 9.44036 18.0268 8.75C18.0268 8.05964 18.5864 7.5 19.2768 7.5C19.9671 7.5 20.5268 8.05964 20.5268 8.75C20.5268 9.44036 19.9671 10 19.2768 10ZM10.5065 32.4892C10.5065 31.7989 11.0662 31.2392 11.7565 31.2392C12.4469 31.2392 13.0065 31.7989 13.0065 32.4892L13 34.996C13 35.6863 12.4404 36.246 11.75 36.246C11.0596 36.246 10.5 35.6863 10.5 34.996L10.5065 32.4892ZM28.0052 32.4985C28.0052 31.8081 28.5648 31.2485 29.2552 31.2485C29.9455 31.2485 30.5052 31.8081 30.5052 32.4985V34.996C30.5052 35.6863 29.9455 36.246 29.2552 36.246C28.5648 36.246 28.0052 35.6863 28.0052 34.996V32.4985ZM20.5 30C16.3579 30 13 26.6421 13 22.5C13 18.3579 16.3579 15 20.5 15C24.6421 15 28 18.3579 28 22.5C28 26.6421 24.6421 30 20.5 30ZM20.5 27.5C23.2614 27.5 25.5 25.2614 25.5 22.5C25.5 19.7386 23.2614 17.5 20.5 17.5C17.7386 17.5 15.5 19.7386 15.5 22.5C15.5 25.2614 17.7386 27.5 20.5 27.5Z" fill="#526563"/>
<path id="Vector_4" d="M20.5 18.75C21.1904 18.75 21.75 19.3096 21.75 20C21.75 20.6904 21.1904 21.25 20.5 21.25C19.8096 21.25 19.25 21.8096 19.25 22.5C19.25 23.1904 18.6904 23.75 18 23.75C17.3096 23.75 16.75 23.1904 16.75 22.5C16.75 20.4289 18.4289 18.75 20.5 18.75Z" fill="#526563"/>
<path id="Vector_5" d="M8 13.775V11.275H33V13.775H8Z" fill="#526563"/>
</g>
</g>
</svg>
