<svg width="41" height="40" viewBox="0 0 41 40" fill="none" xmlns="http://www.w3.org/2000/svg">
<g id="icon/work_outline">
<g id="Vector">
<path d="M23.8333 10.8333V7.49996H17.1666V10.8333H23.8333ZM7.16659 14.1666V32.5H33.8333V14.1666H7.16659ZM33.8333 10.8333C35.6833 10.8333 37.1666 12.3166 37.1666 14.1666V32.5C37.1666 34.35 35.6833 35.8333 33.8333 35.8333H7.16659C5.31659 35.8333 3.83325 34.35 3.83325 32.5L3.84992 14.1666C3.84992 12.3166 5.31659 10.8333 7.16659 10.8333H13.8333V7.49996C13.8333 5.64996 15.3166 4.16663 17.1666 4.16663H23.8333C25.6833 4.16663 27.1666 5.64996 27.1666 7.49996V10.8333H33.8333Z" fill="#526563"/>
</g>
</g>
</svg>
